<svg width="26" height="26" viewBox="0 0 26 26" fill="none" xmlns="http://www.w3.org/2000/svg">
<g clip-path="url(#clip0_509_28)">
<path d="M6.5 1H19.5C22.5376 1 25 3.46243 25 6.5V19.5C25 22.5376 22.5376 25 19.5 25H6.5C3.46243 25 1 22.5376 1 19.5V6.5C1 3.46243 3.46243 1 6.5 1Z" stroke="#101E1F"/>
<path d="M12.9993 18.3327C15.9449 18.3327 18.3327 15.9449 18.3327 12.9993C18.3327 10.0538 15.9449 7.66602 12.9993 7.66602C10.0538 7.66602 7.66602 10.0538 7.66602 12.9993C7.66602 15.9449 10.0538 18.3327 12.9993 18.3327Z" stroke="#101E1F"/>
<path d="M20.084 7.16602C20.7743 7.16602 21.334 6.60637 21.334 5.91602C21.334 5.22566 20.7743 4.66602 20.084 4.66602C19.3936 4.66602 18.834 5.22566 18.834 5.91602C18.834 6.60637 19.3936 7.16602 20.084 7.16602Z" fill="#101E1F"/>
</g>
<defs>
<clipPath id="clip0_509_28">
<rect width="25" height="25" fill="white" transform="translate(0.5 0.5)"/>
</clipPath>
</defs>
</svg>
